PathFileType	4	(X/Y/Z)	./resultDataOpenSim/trcMotMarkerGrf/sub10/qtm-01-01.trc
DataRate	CameraRate	NumFrames	NumMarkers	Units	OrigDataRate	OrigDataStartFrame	OrigNumFrames
250.000000	250.000000	7	24	m	250.000000	360	479
Frame#	Time	L.Toe.Tip			R.Toe.Tip			L.Ankle.Lat			R.Ankle.Lat			L.Ankle.Med			R.Ankle.Med			L.Heel			R.Heel			L.Knee.Lat			R.Knee.Lat			L.Knee.Med			R.Knee.Med			L.Thigh.Upper			R.Thigh.Upper			L.ASIS			R.ASIS			V.Sacral			L.Acromium			R.Acromium			C7			L.Elbow			R.Elbow			L.Wrist.Lat			R.Wrist.Lat
		X1	Y1	Z1	X2	Y2	Z2	X3	Y3	Z3	X4	Y4	Z4	X5	Y5	Z5	X6	Y6	Z6	X7	Y7	Z7	X8	Y8	Z8	X9	Y9	Z9	X10	Y10	Z10	X11	Y11	Z11	X12	Y12	Z12	X13	Y13	Z13	X14	Y14	Z14	X15	Y15	Z15	X16	Y16	Z16	X17	Y17	Z17	X18	Y18	Z18	X19	Y19	Z19	X20	Y20	Z20	X21	Y21	Z21	X22	Y22	Z22	X23	Y23	Z23	X24	Y24	Z24

360	1.436	0.46827763	0.082322407	-0.13254679	0.76539786	0.038436697	0.0077397949	0.40938886	0.20473181	-0.15219634	0.62133042	0.053292759	0.046753236	0.43866899	0.2068542	-0.072078227	0.64198334	0.085786398	-0.033852103	0.34846332	0.23149468	-0.10140553	0.57140211	0.032126394	0.00032351021	0.6861347	0.45458966	-0.18834646	0.66253895	0.45469894	0.10049172	0.71775229	0.41939123	-0.069474992	0.66251862	0.46158268	-0.027855462	0.63525697	0.82861159	-0.22683902	0.67487667	0.87406321	0.15133445	0.70202683	0.94592039	-0.17894696	0.73743104	0.96071378	0.066571324	0.52505604	0.96899508	-0.023264154	0.64307374	1.4329884	-0.19231852	0.63818402	1.416813	0.13364044	0.55241546	1.4522049	-0.034693806	0.57017758	1.0937613	-0.24906978	0.56790434	1.0705148	0.17171678	0.71926879	0.9013609	-0.27348648	0.6974998	0.86826431	0.21744972
361	1.44	0.48515825	0.080862839	-0.13264796	0.76545116	0.038426949	0.0078169166	0.42287959	0.20169568	-0.15160348	0.6213462	0.053481029	0.046768776	0.45244218	0.20411876	-0.071554174	0.64219692	0.086007921	-0.033827	0.36126043	0.22678802	-0.10054013	0.57147443	0.032373861	0.00021859782	0.69521815	0.45646925	-0.18766314	0.66332575	0.45478623	0.10072111	0.72780866	0.42114672	-0.068709679	0.66411181	0.46153316	-0.02763103	0.64172343	0.82951745	-0.22673684	0.67853076	0.87396223	0.15153529	0.70795196	0.94688752	-0.17836456	0.74191767	0.96076144	0.067245569	0.53022524	0.9693678	-0.022632353	0.64825198	1.4334905	-0.19209655	0.6434173	1.4173334	0.13383377	0.55768863	1.452678	-0.034441683	0.57408381	1.0946223	-0.24888904	0.57550059	1.070407	0.17294063	0.721611	0.90113497	-0.27348098	0.70830922	0.8697447	0.2172651
362	1.444	0.50209727	0.079379544	-0.13278144	0.76551491	0.038420503	0.0078909014	0.43648202	0.19848941	-0.1510042	0.62137299	0.053674576	0.046781656	0.46665311	0.20121208	-0.071150279	0.64246877	0.086267794	-0.033847262	0.37422643	0.22184438	-0.099642579	0.57150126	0.032628116	0.00011752164	0.70421335	0.45834247	-0.18697355	0.66417157	0.45491591	0.10099933	0.7379389	0.42289365	-0.067998387	0.66566672	0.46148176	-0.027426249	0.64827559	0.83038293	-0.22657703	0.68223655	0.87386417	0.15168669	0.71378333	0.94769597	-0.17773922	0.7463808	0.96078004	0.067942628	0.53494517	0.96977774	-0.022815918	0.65344277	1.4339379	-0.19188606	0.64862232	1.4178085	0.13402439	0.5629535	1.4531111	-0.034192613	0.57797665	1.0954098	-0.24856265	0.58311248	1.070207	0.17416395	0.72395529	0.90092305	-0.27350031	0.71912472	0.87125694	0.21704019
363	1.448	0.51907572	0.077880964	-0.13297053	0.76558576	0.038414781	0.0079657069	0.45020021	0.19512557	-0.15038393	0.62141623	0.053881028	0.046789186	0.48118791	0.1981607	-0.070821591	0.64277841	0.086565521	-0.033889548	0.38735132	0.21669261	-0.098695735	0.57141802	0.032877197	5.0262088e-05	0.71313134	0.46019752	-0.18627884	0.66512976	0.45508564	0.10133598	0.74799855	0.42462865	-0.067302457	0.66724476	0.46143382	-0.027205414	0.65480107	0.83120447	-0.22640984	0.68594637	0.87377724	0.15181648	0.71956798	0.94839595	-0.17683447	0.7508137	0.96077259	0.06866328	0.53916049	0.97020062	-0.023902864	0.6586528	1.4343184	-0.19169243	0.65380282	1.4182321	0.13420767	0.56820981	1.4535035	-0.033951134	0.58186103	1.0961341	-0.24812357	0.59076556	1.0699798	0.17536131	0.72628961	0.900688	-0.27352376	0.72993244	0.87279873	0.21677555
364	1.452	0.53605979	0.076367719	-0.13321304	0.76565919	0.038407269	0.0080452105	0.46405869	0.19161578	-0.14974807	0.62147738	0.054114418	0.046789452	0.49582921	0.19498999	-0.070485818	0.64306885	0.086880259	-0.03390333	0.40065526	0.21136167	-0.09768877	0.57120798	0.033118508	2.1779122e-05	0.72198318	0.46202266	-0.18558017	0.66618484	0.45527142	0.10169027	0.75793183	0.42633938	-0.06660997	0.66892789	0.46139597	-0.026922862	0.661184	0.83197801	-0.22630685	0.68949715	0.87369554	0.15196317	0.72531147	0.94905023	-0.17553225	0.75521388	0.9607426	0.069411283	0.54301619	0.97061594	-0.025665462	0.66387826	1.4346317	-0.19151415	0.65896728	1.4186016	0.13437658	0.57345898	1.4538547	-0.033719592	0.58573058	1.0968272	-0.24769756	0.5984911	1.0697745	0.17650816	0.72859437	0.90041102	-0.27354426	0.74071415	0.87436986	0.21647857
365	1.456	0.55303352	0.074827623	-0.13349435	0.76572929	0.038395332	0.0081319681	0.47806783	0.18797306	-0.14909979	0.6215453	0.054377535	0.046780708	0.51039435	0.19171378	-0.070070951	0.64330855	0.08718688	-0.033868949	0.41418823	0.20587778	-0.096649182	0.57093724	0.03335991	-1.8994463e-06	0.73077989	0.4638061	-0.18487868	0.66730107	0.45544761	0.10202329	0.767738	0.42802185	-0.065921662	0.67074709	0.46137135	-0.026561616	0.66746665	0.83270617	-0.2262792	0.69279386	0.87361506	0.15214079	0.73102708	0.94970284	-0.17404479	0.75958415	0.96069529	0.07018959	0.54683239	0.97103085	-0.027688565	0.66910655	1.4348952	-0.19134017	0.66412344	1.4189221	0.13453331	0.5787061	1.4541651	-0.033496734	0.58957614	1.0975147	-0.24738799	0.60629598	1.0695759	0.17760352	0.73086816	0.90010276	-0.27357309	0.75146385	0.87597296	0.21615758
366	1.46	0.57002436	0.073253621	-0.13381088	0.76579025	0.038376845	0.0082261634	0.49221171	0.18421336	-0.14843097	0.62160207	0.054658141	0.046761684	0.52488167	0.18833063	-0.069572352	0.64352788	0.087471745	-0.033826092	0.42799837	0.20026517	-0.095634774	0.57071604	0.033611931	-5.8703215e-05	0.73953252	0.4655361	-0.18417554	0.66844758	0.45560802	0.10233131	0.77743439	0.42967992	-0.065237759	0.67267261	0.46134589	-0.026149879	0.67389624	0.83339777	-0.22623822	0.69601018	0.87355063	0.15229769	0.73684093	0.95036165	-0.17288114	0.76392952	0.96063535	0.070996976	0.55097563	0.97148844	-0.029515944	0.67432672	1.4351271	-0.19115761	0.66926976	1.4192034	0.1346955	0.58395074	1.454434	-0.033279956	0.59339785	1.0981931	-0.24718863	0.6141399	1.0693433	0.17868076	0.73314465	0.89978815	-0.27362772	0.76219623	0.8776096	0.21581364
